# xmcd
#
# Track frame offsets: 
#        150
#        10700
#        21355
#        33207
#        43912
#        57402
#        67067
#        80007
#        87977
#        99580
#        107207
#        118612
#
# Disc length: 1710 seconds
#
# Revision: 0
# Processed by: cddbd v1.4PL0 Copyright (c) Steve Scherf et al.
# Submitted via: ExactAudioCopy v0.90b4
#
DISCID=9f06ac0c
DTITLE=The Statler Brothers - The Best of the Statler Brothers
DYEAR=1990
DGENRE=Country
TTITLE0=Flowers On The Wall
TTITLE1=Ruby Don't Take Your Love To Town
TTITLE2=There Goes My Everything
TTITLE3=I'm Not Quite Through Crying
TTITLE4=Green, Green Grass Of Home
TTITLE5=King Of The Road
TTITLE6=Do You Love Me Tonight
TTITLE7=This Ole House
TTITLE8=Funny, Familiar, Forgotten Feelings
TTITLE9=My Darling Hildegarde
TTITLE10=Daddy Sang Bass
TTITLE11=The Doodlin' Song
EXTD=
EXTT0=
EXTT1=
EXTT2=
EXTT3=
EXTT4=
EXTT5=
EXTT6=
EXTT7=
EXTT8=
EXTT9=
EXTT10=
EXTT11=
PLAYORDER=
